<?xml version="1.0" standalone="no"?>
<!DOCTYPE svg PUBLIC "-//W3C//DTD SVG 20010904//EN"
 "http://www.w3.org/TR/2001/REC-SVG-20010904/DTD/svg10.dtd">
<svg version="1.0" xmlns="http://www.w3.org/2000/svg"
 width="476.000000pt" height="106.000000pt" viewBox="0 0 476.000000 106.000000"
 preserveAspectRatio="xMidYMid meet">
<metadata>
Created by potrace 1.16, written by Peter Selinger 2001-2019
</metadata>
<g transform="translate(0.000000,106.000000) scale(0.100000,-0.100000)"
fill="#000000" stroke="none">
<path d="M210 910 c0 -5 18 -10 40 -10 l40 0 0 -260 c0 -326 -7 -350 -108
-350 -48 0 -72 24 -72 71 0 41 -15 59 -47 59 -46 0 -59 -84 -19 -125 43 -42
179 -46 255 -7 71 37 75 55 81 347 l5 260 43 3 c23 2 42 7 42 13 0 5 -55 9
-130 9 -80 0 -130 -4 -130 -10z"/>
<path d="M655 910 c-4 -6 9 -10 34 -10 l41 0 0 -280 c0 -267 -1 -281 -20 -300
-11 -11 -31 -20 -45 -20 -14 0 -25 -4 -25 -10 0 -6 52 -10 135 -10 83 0 135 4
135 10 0 6 -11 10 -25 10 -14 0 -34 9 -45 20 -17 17 -20 33 -20 124 l0 103 98
5 c80 4 107 9 143 29 78 43 110 146 73 239 -31 76 -101 97 -336 99 -86 1 -139
-2 -143 -9z m330 -34 c56 -24 77 -68 73 -153 -3 -60 -7 -76 -28 -99 -35 -38
-80 -54 -150 -54 l-60 0 0 160 0 160 65 0 c36 0 81 -6 100 -14z"/>
<path d="M1318 903 l42 -4 0 -277 c0 -235 -2 -281 -16 -300 -8 -12 -24 -22
-34 -22 -10 0 -22 -5 -25 -10 -4 -6 27 -10 84 -10 54 0 91 4 91 10 0 6 -9 10
-20 10 -11 0 -29 9 -40 20 -19 19 -20 33 -20 265 0 135 4 245 8 245 4 0 61
-124 126 -275 66 -154 124 -274 130 -272 6 2 60 125 121 275 l110 270 3 -246
c2 -242 2 -247 -19 -265 -12 -9 -30 -17 -40 -17 -10 0 -19 -4 -19 -10 0 -6 48
-10 125 -10 77 0 125 4 125 10 0 6 -6 10 -14 10 -7 0 -25 9 -40 21 l-26 20 0
279 0 279 38 4 c20 2 -1 4 -48 3 l-85 -1 -99 -242 c-55 -134 -102 -241 -105
-238 -3 3 -51 112 -106 243 l-102 237 -94 1 c-52 0 -75 -1 -51 -3z"/>
<path d="M3445 753 c-9 -10 -24 -29 -34 -42 l-17 -23 -50 25 c-92 48 -180 45
-245 -10 -40 -34 -59 -79 -59 -140 0 -65 27 -112 79 -139 l42 -21 -43 -12
c-58 -17 -88 -47 -88 -87 0 -64 40 -83 201 -93 123 -8 161 -21 174 -61 10 -31
-16 -73 -60 -95 -30 -15 -60 -20 -117 -20 -98 0 -131 20 -138 86 -4 32 -10 45
-23 47 -27 5 -47 -17 -47 -53 0 -73 63 -105 208 -105 66 0 87 4 132 28 68 34
93 76 87 145 -8 87 -50 112 -207 122 -137 8 -150 11 -150 35 0 28 35 47 115
61 87 15 149 43 175 79 25 35 36 109 22 149 -11 30 -10 31 19 31 32 0 79 38
79 63 0 8 -9 22 -19 31 -18 17 -20 17 -36 -1z m-160 -57 c28 -28 39 -77 33
-152 -6 -69 -33 -108 -78 -112 -82 -8 -110 26 -110 138 0 74 16 121 47 139 32
19 82 13 108 -13z"/>
<path d="M3650 741 c-78 -24 -127 -81 -103 -120 24 -38 83 -9 83 41 0 33 36
58 84 58 64 0 88 -32 84 -114 l-3 -60 -70 -12 c-136 -23 -195 -68 -195 -151 0
-38 5 -50 34 -79 29 -29 41 -34 82 -34 51 0 132 32 141 56 7 18 23 18 23 1 0
-28 41 -52 87 -51 51 1 78 22 89 69 l7 30 -26 -30 c-21 -25 -29 -28 -44 -19
-16 10 -19 31 -23 177 -6 189 -14 212 -86 234 -44 13 -127 15 -164 4z m150
-301 c0 -80 0 -80 -32 -100 -52 -31 -87 -35 -117 -13 -37 28 -41 90 -9 127 28
32 94 65 131 66 l27 0 0 -80z"/>
<path d="M2225 726 c-84 -37 -132 -138 -122 -253 10 -104 54 -169 136 -198
158 -55 295 52 294 230 -1 151 -78 235 -215 235 -35 -1 -76 -7 -93 -14z m167
-26 c33 -25 48 -87 48 -193 0 -98 -21 -180 -53 -202 -12 -9 -43 -15 -73 -15
-92 0 -113 39 -114 210 0 165 30 220 118 220 34 0 57 -6 74 -20z"/>
<path d="M2833 726 c-20 -9 -40 -29 -50 -50 -19 -41 -33 -46 -33 -13 -1 63 -6
67 -91 67 -46 0 -79 -4 -79 -10 0 -5 20 -10 45 -10 l45 0 0 -174 c0 -96 -4
-186 -9 -199 -6 -16 -21 -28 -40 -32 -66 -14 -26 -25 94 -25 118 0 161 10 96
23 -39 8 -51 47 -51 161 0 113 12 158 51 190 39 33 51 33 95 -6 42 -37 67 -30
72 19 6 56 -76 90 -145 59z"/>
<path d="M4253 721 c-23 -11 -49 -31 -58 -45 -24 -36 -31 -33 -39 14 l-6 40
-70 0 c-40 0 -70 -4 -70 -10 0 -5 16 -10 35 -10 l35 0 0 -183 c0 -191 -4 -212
-44 -219 -11 -1 -21 -9 -24 -15 -3 -10 23 -13 107 -13 61 0 111 3 111 7 0 4
-12 17 -27 29 -27 21 -28 27 -31 122 -7 190 24 256 117 250 63 -4 73 -28 79
-190 5 -147 0 -175 -33 -190 -46 -21 -25 -28 85 -28 110 0 136 9 80 28 -37 13
-39 22 -42 203 -4 163 -12 189 -73 215 -46 19 -82 17 -132 -5z"/>
</g>
</svg>
